# xmcd
# 
# Track frame offsets:
#     150
#     49841
#     172171
#     202907
# 
# Disc length: 3102
# 
# Revision: 0
# Processed by: cddbd v1.5.2PL0 Copyright (c) Steve Scherf et al.
# Submitted via: fre:ac v1.0.17
# 
DISCID=320c1c04
DTITLE=Jack Canfield and Janet Switzer - The Success Principles
DYEAR=2009
DGENRE=Speech
TTITLE0=The Success Principles CD1 - 01
TTITLE1=The Success Principles CD1 - 02
TTITLE2=The Success Principles CD1 - 03
TTITLE3=The Success Principles CD1 - 04
EXTD=Your 30 Day Journey from where you are to where you want to go
EXTT0=
EXTT1=
EXTT2=
EXTT3=
PLAYORDER=
